<?xml version="1.0" encoding="utf-8"?><!-- Uploaded to: SVG Repo, www.svgrepo.com, Generator: SVG Repo Mixer Tools -->
<svg width="800px" height="800px" viewBox="0 -0.5 25 25" fill="none" xmlns="http://www.w3.org/2000/svg">
<path d="M14.2354 7.14709C14.3167 6.74092 14.0533 6.3458 13.6471 6.26456C13.2409 6.18333 12.8458 6.44674 12.7646 6.85291L14.2354 7.14709ZM10.7646 16.8529C10.6833 17.2591 10.9467 17.6542 11.3529 17.7354C11.7591 17.8167 12.1542 17.5533 12.2354 17.1471L10.7646 16.8529ZM7.97342 15.4921C8.26837 15.7829 8.74323 15.7795 9.03406 15.4846C9.32488 15.1896 9.32153 14.7148 9.02658 14.4239L7.97342 15.4921ZM5.5 12L4.97342 11.4659C4.83048 11.6069 4.75 11.7993 4.75 12C4.75 12.2007 4.83048 12.3931 4.97342 12.5341L5.5 12ZM9.02658 9.57606C9.32153 9.28523 9.32488 8.81037 9.03406 8.51542C8.74323 8.22047 8.26837 8.21712 7.97342 8.50794L9.02658 9.57606ZM15.9773 14.3782C15.6802 14.6669 15.6735 15.1417 15.9622 15.4387C16.2509 15.7358 16.7257 15.7425 17.0227 15.4538L15.9773 14.3782ZM19.5 12L20.0227 12.5378C20.1667 12.3979 20.2486 12.2061 20.25 12.0053C20.2514 11.8046 20.1723 11.6116 20.0303 11.4697L19.5 12ZM17.0303 8.46967C16.7374 8.17678 16.2626 8.17678 15.9697 8.46967C15.6768 8.76256 15.6768 9.23744 15.9697 9.53033L17.0303 8.46967ZM12.7646 6.85291L10.7646 16.8529L12.2354 17.1471L14.2354 7.14709L12.7646 6.85291ZM9.02658 14.4239L6.02658 11.4659L4.97342 12.5341L7.97342 15.4921L9.02658 14.4239ZM6.02658 12.5341L9.02658 9.57606L7.97342 8.50794L4.97342 11.4659L6.02658 12.5341ZM17.0227 15.4538L20.0227 12.5378L18.9773 11.4622L15.9773 14.3782L17.0227 15.4538ZM20.0303 11.4697L17.0303 8.46967L15.9697 9.53033L18.9697 12.5303L20.0303 11.4697Z" fill="#000000"/>
</svg>